<svg xmlns="http://www.w3.org/2000/svg" viewBox="0 0 3362.15 753.75"><defs><style>.cls-1{fill:#3e5e46;}</style></defs><g id="Layer_2" data-name="Layer 2"><g id="Layer_1-2" data-name="Layer 1"><path class="cls-1" d="M374.64,471.24c-15.94-15.72-27.9,10.36-34.19,21.73-1.44,4.75-.29,16.34-6.8,18-2.2,22.92-19.36,55.79-31.38,73.71-8.51,5.83-5,16.37-17.32,18.87a2,2,0,0,1-1.34.84c-58.68,76.23-61.15,5.92-53.31-49.93,5.41-42.42-1.1-85.19,10.87-127.08,4.4-25.37-8.57-46-28.06-60.95-4-8.18-41.44-10.73-48.88-14-27.85,7.69-45.34,14.83-66.79,19.67-2.06,1.36.07,7.67-3.06,8.62l-9.46,4.54c-38.77,24.64-61.19,60.3-74.67,104.67-41.1,107.29,48.87,217.12,137.34,257,1.41-.12,16.92,6.72,17.52,4.56,14.22-7.09,27.38,1.48,42.58.8,6.11-5.12,23.59.22,30.28,1.47,7.24-2.82,9.07-3.06,10-9.41,5.17-5.1,16.21-1.1,26.77-9.23,14.88-9.76,21.75-14.34,33.79-22.58,5.41-4.68,14.56-5,12.65-14.82,5.47-8.7,17.82-18,21.19-27,1.14-7.2,9.57-11.42,12.44-17.68l8.68-18.44c5-4.31,12-7.38,15.52-15C384.1,571.23,442.91,495.43,374.64,471.24Zm-210,122.27c.25,1.43-1,1.88-.51,3.35-38.37,55.79-92.09-77.18-61.06-106.39,14.75-20,27.19-39.13,54.31-37C177.35,496.14,153.69,549.11,164.67,593.51Z"/><path class="cls-1" d="M456.59,439.76c-5.64,21.67,22.93,19,35.91,18.75,4.84-1.13,14.3-7.92,19-3.09,20.95-9.55,58-11.13,79.53-9.68,9.3,4.46,16.69-3.82,25,5.56a2,2,0,0,1,1.4.75c95.36,12.69,35.7,50-16.59,71.13-39.44,16.53-73.22,43.55-115.49,54.12-24.17,8.88-35.54,30.42-38.75,54.78-5.07,7.58,11.43,41.25,12.35,49.32,20.58,20.27,35.51,31.84,50.43,48,2.21,1.1,6.61-3.9,9-1.66l8.65,5.92c40.73,21.25,82.82,22.85,128,12.33,113.46-18,163.59-150.88,153.88-247.43-.8-1.17-2.64-18-4.8-17.46-13.26-8.77-12.42-24.45-20.61-37.27-7.48-2.73-11.6-20.54-13.86-27-6.06-4.86-7.19-6.32-13.15-3.95-7-1.94-9.06-13.49-21.38-18.57-15.89-8-23.29-11.67-36.44-18-6.76-2.34-11.63-10.1-19.16-3.55-10.28-.38-24.47-6.45-33.94-4.87-6.81,2.62-14.68-2.57-21.53-1.93l-20.32,1.7c-6.25-2.21-12.39-6.72-20.77-5.92C538.46,381.57,443.41,368.55,456.59,439.76ZM667.47,560.48c1.12-.94,2.11-.12,3.15-1.25,67.5,5.35-20.79,118.35-61.6,106.08-24.72-2.76-47.48-4-59.18-28.55C576.8,598.17,634.51,592.18,667.47,560.48Z"/><path class="cls-1" d="M388.36,384.53c21.58-5.94,5-29.35-1.72-40.47-3.4-3.63-14-8.43-12.16-14.87-18.74-13.37-38.64-44.66-48.14-64-.79-10.28-11.66-12.54-7.68-24.43a2,2,0,0,1-.06-1.59c-36.68-88.92,25.45-55.91,69.89-21.19,34,25.89,74.33,41.64,104.62,72.95,19.78,16.49,44.12,15.57,66.82,6.18,9.1.59,30-30.53,36.53-35.36,7.27-28,9.83-46.68,16.36-67.67-.15-2.47-6.68-3.78-5.94-7l.8-10.45c-1.95-45.9-21.62-83.15-53.31-117C482-29.63,341.91-6.62,263.14,50.06c-.61,1.28-14.27,11.29-12.71,12.89-1,15.86-15,23-22,36.48,1.38,7.85-12,20.31-16.41,25.48-1.18,7.68-1.89,9.39,3.15,13.37,1.82,7-7.16,14.59-5.39,27.8,1,17.76,1.54,26,2.65,40.55,1.35,7-2.93,15.12,6.51,18.36,4.8,9.09,6.64,24.42,12.74,31.83,5.67,4.59,5.11,14,9.1,19.61l11.63,16.75c1.21,6.51.38,14.09,5.26,20.95C297,342.73,333.28,431.55,388.36,384.53Zm-.9-243c-1.37-.5-1.16-1.77-2.65-2.11-29.12-61.13,112.89-41.17,122.67.31,10,22.79,20.29,43.11,4.86,65.53C465.44,201.22,431.4,154.24,387.46,141.55Z"/><path class="cls-1" d="M1323.26,375.74,1310.06,397l-23.68,6.8-25.9-4.54-25.91.94-25.86,2.24-25.89-.09-25.93-3.21-25.93,3.4L1105,404.09l-26-5.46-26.21,2.64,8.09,26.45,15,22.75,22.88,14.4,25,8.3,26.14,5.12,26.76.17,26.63-3,25.27-9.16,26.94-3.37,25.6,5.31,8.62,23.93,2.66,25.62-6,23.62-25,13.35L1234.07,562l-27.76,5.22-28,4.21L1150,568.52l-26.49-1.39-26.42-2.79-26.8-3.61-23.55-13.24-22.63-13.92L1000.53,520l-15-22.64-13.31-22.84-14.09-22.68-7.8-25.58-7-26.09.46-27-.06-26.38,6.58-25.56,5.15-25.85L969.56,273l10.17-24.48,17-20.34,22.57-14,20.89-15.74,24.39-9.46,25.29-6.09,25.08-9.26,26.48.39,25.55,4.41,24.93,5.26,24.86,5.54,23.67,9.7,20.36,15.4,17.39,18.33L1296.38,251l13.68,22.23,6.49,25.24-.15,26.05,1.76,25.33Zm-178-109.08-24.77,2-22.86,9.7-22.49,12.7L1061.3,313l-7.24,24,24.19.06,24.44,3.21,24.47-3.4,24.44-1.54,24.49,5.46,24.53-2.59,24.86.3-2-25.61-13.72-20.41L1191,277.89,1169.55,267Z"/><path class="cls-1" d="M1713,515l-8.77,28-22.22,10.83-24.65,3.62L1634,564l-23.85,6-24.52,1.32-25-4.25-25.35.07-25-4.3-21.89-13.5-23.54-8.71-20.7-14.16-18.35-17-18.46-17.3-14.71-20.79-8.47-24L1378.06,423,1374,398.24l-5.29-25.06,6.65-24.88.79-25.3,5.61-24.82L1396.14,277l11.8-22.14,15.16-20.26,19.64-16,21.07-13.82,22.12-12.26,25-4.7,24.27-5.58,24.61-4.5,25-4.64,23.93,4.23L1632.4,181l24.44,1.25,21.44,11.78,20.55,11.82,12.6,18.58L1701.28,252l-7.76,28.36-26.8,12.19L1645.07,286l-20.92-8.65-22.47-1.8-22.29-5.18-26,7-24.29,9.14L1505.45,299l-13.89,22.94-10.1,24.63-4,26.62,8.18,26.46,8.23,25.48,14.66,23.33L1531,465.24l27,7.38,27.58,1.75,28.08-1,27.86-4.81,25.12-13.21,29.68,7.52,7,26.37Z"/><path class="cls-1" d="M1760.34,373.18l2.49-26.9,4.44-26.6,12.28-24.12L1790,271.3l13-23.34,18.25-19.61,22.76-14L1865.34,198l24.3-11.62,27.16-1.69,25.84-6.52,26.66-.91,26.51,1.9,26.78,1.25,26.29,5.81,24,12.28L2095.23,213l20.62,16.67,21,17.07,10.43,25.15,14.4,22.55,9.61,25.19.17,27.1,3.26,26.44.12,26.9-5.62,26.29-8.06,25.55-10.33,24.82-18,20L2115,516.16l-19.81,17.55-21.28,16.66-26,7.34-25.78,6.5-25.87,8.23-27-2.88-24.47-2.65-24.82-.28-24-6-24.2-6.36-21.24-13.22-21.18-13.19-16.48-18.74-17.26-18-9.25-23.22-13.58-21.09-7-24,.26-25.11Zm303.85,0L2062.66,347l-8.42-24.84-11.09-24.76-21.78-16.46-25.7-7.9-26.37-3.17-27.23,0-23.86,13.12-19.54,17.63-19.53,19.21-6.27,26.64-3,26.79,2,27.11L1883,425l15.69,21.17,19.16,18.3,24.54,11.13,26.92,3.25,25.9-7,26.75-5.1,18.72-19.68,13-22.84,12.47-24Z"/><path class="cls-1" d="M2366.18,573.62l-25.61-2-25.5-2.55-24.4-8.74-24.87-5-24.66-6.37L2230,527.47l1.65-28.86-4.94-28.49,24.8-13.73,20.27,13.72,23.7,4.29,23.22,5.54,23.55,4.22,23.89-1.31,22.39-2.27L2411,479l21-8.28,10.36-20-14-18.44L2408,418,2383,416l-24.71-2.6-23.44-9.19-24.34-4.66-23.71-7.75-20.64-14.08-17.24-17.85-13.11-21.28-2.65-24.81-1.71-24.35,1.39-24.37,5.18-24.64,16.91-18.62,18.88-15.65,19.73-15.79,24.84-4.49,24.36-3.77,24.18-6,24.87-.82,26.67-1.53,26.29,4.71,26.45,3.34,25.08,9.08,25.72,6.92,8.12,22.08-3.26,26.76-7.13,25.68-25,10.08L2469.17,276,2444,268.45l-25.88-5.13-26.39,3.78-22.75.36-22.51,6.16-12,21.26,14.19,23.6,24.94,9.78,25.64,7.43,25.87,6.24,26.78,1.89,26.33,5.6,23.83,12.74,18.1,19.66,15.28,20.48,10.8,23.69,6,26.25-3.66,27.4-13.15,24.08-16.88,21.19L2496.72,541l-24.52,11.43-25.21,10-27.17,2.11-26.43,6.86Z"/><path class="cls-1" d="M2889.08,200.33l-1,29.46.21,29.45-14.37,9.82L2847,270l-26.92,2.24-27-.09-28.77-2.51,2.5,26.3,1.54,24.33-5.46,24.36,2.59,24.32-.35,24.38-.62,24.42,2.79,24.42,10,24.15,24.49,10.43,23.24-.79,22.76-4.93,25.93,11L2872,507.61l6.84,24.32L2870.63,553,2846,558.89l-23.47,7.6-24.5,4.42-24.91-.29-27.23-2.37-26.83-6-22.19-16.07-19.56-18L2662,506.29l-11.83-24.91.54-27.59.52-26-4.23-26,4.18-26,1.58-26-3.14-26,.08-26.07-1.9-24.42-18.44-.91-20.54,1.39L2596,259.24l-2.2-29.45,3.94-29.46,11.12-15.4,20.54-.25,21.6,3.82,7.75-25,10.45-23.07,10.42-23.07,19.15-22.53,23.65,1.74L2746,99.71l17.15,16.91,1.62,23.48,1,23.53-.84,25,28.16,1.69,26.92-3.94,27-2.34,27,1.54Z"/><path class="cls-1" d="M2951.76,65.46l6.73-26.4,17.07-21,25.56-7.25,25.5-4.17L3052.08,8l22.67,12,12.57,21.66,8.21,23.82-3.36,26.6-19.11,18.27-20.69,14.85-25.75,3.62-26.4-4.28-25.12-10.11-17.65-21.48ZM2963.39,546l1-26.58-.2-26.56,4.55-26.58-.94-26.57-2.25-26.58.1-26.59,3.21-26.53-3.4-26.58-1.54-26.6,5.46-26.61-2.59-26.61.35-26.66.63-26.66L2979.34,186l23-1.3,23,2.18,23.09,1.19,23.09.1,16.15,12.19-5.34,26.58,3.39,26.56,1.71,26.58L3083,306.62l1.81,26.58,1.57,26.59-1.07,26.53-.18,26.58,1.19,26.6-3.89,26.61-.11,26.61,1.24,26.66,3.58,26.66-15.57,12.37-23-.52-23.05,4.23-23.09-4.18-23.09-1.58Z"/><path class="cls-1" d="M3352.88,555.36l-21.29,9.3-22.27,6.16-23-2.56-24.86-1-24.77-4.48-21.87-12.67-14.55-20.29-14.09-20.76-7.36-24.39,3.77-25.47-2.6-26.36.35-26.39.63-26.36-2.8-26.39-1.3-26.38,2.18-26.4,1.19-26.39.1-26.4-4-26.4,5.34-26.36L3178.3,169l-1.7-26.42,4.48-26.42-1.81-26.43-1.58-26.48,1.08-26.47,12.9-14.32,26.66-5.31,27.48-.3,26.92-4L3291.3,29l3.59,25.29-3.2,25.32-.52,25.34,4.23,25.32-4.19,25.34L3289.64,181l3.14,25.36-.08,25.34,2.46,25.27-1.92,25.36,1.39,25.32L3292.18,333l2.19,25.38-3.93,25.34,4.28,25.41.25,25.44L3290.78,460l19.54,20.41,22.74-3.47,16.46,9,9.69,23.45,2.94,24.77Z"/></g></g></svg>