<svg xmlns="http://www.w3.org/2000/svg" viewBox="0 0 861.25 801.4"><defs><style>.cls-1{fill:#b7a17a;}</style></defs><g id="Layer_2" data-name="Layer 2"><g id="Layer_1-2" data-name="Layer 1"><path class="cls-1" d="M398.33,501c-16.95-16.71-29.67,11-36.35,23.1-1.53,5.06-.31,17.38-7.23,19.1-2.35,24.37-20.58,59.32-33.37,78.37C312.33,627.8,316,639,303,641.66a2.1,2.1,0,0,1-1.43.9c-62.38,81.05-65,6.29-56.68-53.09,5.75-45.1-1.17-90.57,11.56-135.11,4.67-27-9.11-48.9-29.83-64.81-4.29-8.69-44.07-11.4-52-14.84-29.61,8.18-48.2,15.77-71,20.92-2.19,1.44.08,8.15-3.26,9.16l-10,4.83c-41.22,26.2-65.06,64.11-79.39,111.29-43.7,114.07,52,230.84,146,273.23,1.5-.12,18,7.14,18.62,4.86,15.12-7.55,29.11,1.56,45.27.84,6.5-5.44,25.08.24,32.19,1.56,7.7-3,9.65-3.25,10.64-10,5.5-5.42,17.24-1.17,28.46-9.82,15.82-10.37,23.13-15.24,35.93-24,5.74-5,15.48-5.33,13.45-15.75,5.81-9.26,18.95-19.1,22.53-28.66,1.21-7.66,10.17-12.15,13.22-18.8l9.23-19.61c5.36-4.58,12.78-7.84,16.5-16C408.39,607.35,470.91,526.75,398.33,501ZM175.08,631c.26,1.53-1,2-.54,3.57-40.8,59.31-97.91-82.06-64.92-113.12,15.68-21.29,28.91-41.6,57.75-39.31C188.56,527.51,163.4,583.82,175.08,631Z" transform="translate(0)"/><path class="cls-1" d="M485.46,467.57c-6,23,24.38,20.18,38.18,19.93,5.15-1.2,15.21-8.42,20.16-3.29,22.28-10.15,61.66-11.83,84.55-10.29,9.89,4.74,17.75-4.06,26.58,5.92a2.08,2.08,0,0,1,1.5.79c101.38,13.5,38,53.16-17.64,75.62C596.85,573.83,560.93,602.56,516,613.8c-25.71,9.44-37.8,32.34-41.21,58.24-5.39,8.06,12.15,43.86,13.13,52.44,21.89,21.55,37.76,33.86,53.62,51,2.35,1.18,7-4.14,9.57-1.76l9.2,6.29c43.3,22.6,88.06,24.3,136.08,13.12C817,774,870.32,632.73,860,530.08c-.85-1.24-2.8-19.15-5.11-18.56-14.09-9.32-13.19-26-21.9-39.63-8-2.91-12.34-21.84-14.74-28.66-6.45-5.17-7.64-6.73-14-4.2-7.44-2.06-9.64-14.35-22.74-19.75-16.89-8.51-24.76-12.41-38.75-19.11-7.18-2.49-12.36-10.74-20.36-3.77-10.93-.41-26-6.87-36.09-5.19-7.24,2.78-15.6-2.73-22.89-2L641.84,391c-6.64-2.35-13.18-7.15-22.09-6.3C572.5,405.7,471.44,391.85,485.46,467.57ZM709.67,595.91c1.19-1,2.25-.12,3.35-1.32,71.77,5.68-22.1,125.83-65.5,112.79C621.24,704.44,597,703.14,584.6,677,613.27,636,674.62,629.62,709.67,595.91Z" transform="translate(0)"/><path class="cls-1" d="M412.92,408.84c22.94-6.32,5.28-31.2-1.84-43-3.61-3.85-14.89-9-12.92-15.81-19.93-14.22-41.08-47.49-51.19-68.08-.84-10.94-12.39-13.34-8.17-26a2.15,2.15,0,0,1-.06-1.69c-39-94.55,27.06-59.45,74.32-22.53,36.19,27.52,79,44.27,111.23,77.56,21,17.54,46.9,16.56,71,6.57,9.67.63,31.91-32.46,38.84-37.59,7.73-29.73,10.45-49.63,17.39-72-.15-2.62-7.1-4-6.31-7.4l.85-11.12c-2.08-48.8-23-88.4-56.68-124.4C512.48-31.5,363.52-7,279.78,53.23c-.65,1.36-15.18,12-13.52,13.7-1,16.86-15.91,24.43-23.37,38.78,1.47,8.35-12.74,21.6-17.45,27.1-1.25,8.17-2,10,3.35,14.21,1.94,7.47-7.6,15.52-5.73,29.56,1.08,18.89,1.64,27.65,2.82,43.11,1.44,7.47-3.12,16.08,6.92,19.53,5.11,9.66,7.06,26,13.55,33.84,6,4.88,5.44,14.88,9.67,20.85l12.37,17.8c1.29,6.93.4,15,5.59,22.28C315.81,364.4,354.35,458.84,412.92,408.84ZM412,150.5c-1.46-.53-1.23-1.88-2.82-2.24-31-65,120-43.77,130.42.33,10.6,24.22,21.58,45.83,5.17,69.66C494.87,213.94,458.68,164,412,150.5Z" transform="translate(0)"/></g></g></svg>